<?xml version="1.0" standalone="no"?>
<!DOCTYPE svg PUBLIC "-//W3C//DTD SVG 20010904//EN"
 "http://www.w3.org/TR/2001/REC-SVG-20010904/DTD/svg10.dtd">
<svg version="1.0" xmlns="http://www.w3.org/2000/svg"
 width="384.000000pt" height="384.000000pt" viewBox="0 0 384.000000 384.000000"
 preserveAspectRatio="xMidYMid meet">
<metadata>
Created by potrace 1.14, written by Peter Selinger 2001-2017
</metadata>
<g transform="translate(0.000000,384.000000) scale(0.100000,-0.100000)"
fill="#000000" stroke="none">
<path d="M160 3760 l0 -80 -80 0 -80 0 0 -480 0 -480 80 0 80 0 0 -80 0 -80
240 0 240 0 0 -160 0 -160 240 0 240 0 0 -80 0 -80 -240 0 -240 0 0 -160 0
-160 80 0 80 0 0 -80 0 -80 -80 0 -80 0 0 -480 0 -480 80 0 80 0 0 -80 0 -80
880 0 880 0 0 80 0 80 80 0 80 0 0 -80 0 -80 160 0 160 0 0 160 0 160 -160 0
-160 0 0 800 0 800 320 0 320 0 0 80 0 80 80 0 80 0 0 560 0 560 -80 0 -80 0
0 80 0 80 -560 0 -560 0 0 -80 0 -80 -80 0 -80 0 0 -400 0 -400 -400 0 -400 0
0 400 0 400 -80 0 -80 0 0 80 0 80 -480 0 -480 0 0 -80z m800 -160 l0 -80 80
0 80 0 0 -320 0 -320 -80 0 -80 0 0 -80 0 -80 -80 0 -80 0 0 80 0 80 80 0 80
0 0 320 0 320 -320 0 -320 0 0 -320 0 -320 80 0 80 0 0 -80 0 -80 -80 0 -80 0
0 80 0 80 -80 0 -80 0 0 320 0 320 80 0 80 0 0 80 0 80 320 0 320 0 0 -80z
m2240 0 l0 -80 80 0 80 0 0 -320 0 -320 -80 0 -80 0 0 -80 0 -80 -80 0 -80 0
0 80 0 80 80 0 80 0 0 320 0 320 -400 0 -400 0 0 -320 0 -320 80 0 80 0 0 -80
0 -80 -80 0 -80 0 0 80 0 80 -80 0 -80 0 0 320 0 320 80 0 80 0 0 80 0 80 400
0 400 0 0 -80z m-2080 -1120 l0 -80 -80 0 -80 0 0 80 0 80 80 0 80 0 0 -80z
m480 0 l0 -80 -80 0 -80 0 0 80 0 80 80 0 80 0 0 -80z m480 -160 l0 -80 -80 0
-80 0 0 80 0 80 80 0 80 0 0 -80z m-800 -320 l0 -80 -80 0 -80 0 0 -80 0 -80
-160 0 -160 0 0 80 0 80 160 0 160 0 0 80 0 80 80 0 80 0 0 -80z m1120 0 l0
-80 -240 0 -240 0 0 -80 0 -80 160 0 160 0 0 -80 0 -80 80 0 80 0 0 -80 0 -80
-80 0 -80 0 0 80 0 80 -160 0 -160 0 0 80 0 80 -80 0 -80 0 0 80 0 80 80 0 80
0 0 80 0 80 240 0 240 0 0 -80z m-1440 -800 l0 -80 80 0 80 0 0 80 0 80 80 0
80 0 0 -80 0 -80 -80 0 -80 0 0 -80 0 -80 -80 0 -80 0 0 80 0 80 -80 0 -80 0
0 80 0 80 80 0 80 0 0 -80z m1120 0 l0 -80 160 0 160 0 0 80 0 80 80 0 80 0 0
-80 0 -80 -80 0 -80 0 0 -80 0 -80 -160 0 -160 0 0 80 0 80 -80 0 -80 0 0 80
0 80 80 0 80 0 0 -80z m-160 -320 l0 -80 80 0 80 0 0 -80 0 -80 -480 0 -480 0
0 80 0 80 80 0 80 0 0 80 0 80 320 0 320 0 0 -80z"/>
<path d="M3200 640 l0 -160 160 0 160 0 0 160 0 160 -160 0 -160 0 0 -160z"/>
<path d="M3680 560 l0 -80 80 0 80 0 0 80 0 80 -80 0 -80 0 0 -80z"/>
<path d="M2560 240 l0 -80 -80 0 -80 0 0 -80 0 -80 80 0 80 0 0 80 0 80 160 0
160 0 0 80 0 80 -160 0 -160 0 0 -80z"/>
<path d="M3040 240 l0 -80 160 0 160 0 0 80 0 80 -160 0 -160 0 0 -80z"/>
<path d="M3520 240 l0 -80 160 0 160 0 0 80 0 80 -160 0 -160 0 0 -80z"/>
</g>
</svg>
